<svg xmlns="http://www.w3.org/2000/svg" width="2048" height="1108" viewBox="0 0 2048 1108">
<rect width="100%" height="100%" fill="white"/>
<style>
  text{font-family:Arial, Helvetica, sans-serif; fill:#050505;}
  .title{font-size:48px;font-weight:800;letter-spacing:0;}
  .axis{font-size:32px;font-weight:800;}
  .tick{font-size:23px;}
  .label{font-size:24px;font-weight:800;}
  .grid{stroke:#dddddd;stroke-width:1;opacity:.48;}
  .axisline{stroke:#111;stroke-width:2;}
</style><text class="title" x="1024" y="56" text-anchor="middle">Warmer Regions Generally Bloom Earlier (2026)</text><line class="grid" x1="303.37777777777774" x2="303.37777777777774" y1="95" y2="1000"/><text class="tick" x="303.37777777777774" y="1038" text-anchor="middle">5</text><line class="grid" x1="507.59999999999997" x2="507.59999999999997" y1="95" y2="1000"/><text class="tick" x="507.59999999999997" y="1038" text-anchor="middle">6</text><line class="grid" x1="711.8222222222222" x2="711.8222222222222" y1="95" y2="1000"/><text class="tick" x="711.8222222222222" y="1038" text-anchor="middle">7</text><line class="grid" x1="916.0444444444445" x2="916.0444444444445" y1="95" y2="1000"/><text class="tick" x="916.0444444444445" y="1038" text-anchor="middle">8</text><line class="grid" x1="1120.2666666666667" x2="1120.2666666666667" y1="95" y2="1000"/><text class="tick" x="1120.2666666666667" y="1038" text-anchor="middle">9</text><line class="grid" x1="1324.4888888888888" x2="1324.4888888888888" y1="95" y2="1000"/><text class="tick" x="1324.4888888888888" y="1038" text-anchor="middle">10</text><line class="grid" x1="1528.711111111111" x2="1528.711111111111" y1="95" y2="1000"/><text class="tick" x="1528.711111111111" y="1038" text-anchor="middle">11</text><line class="grid" x1="1732.9333333333334" x2="1732.9333333333334" y1="95" y2="1000"/><text class="tick" x="1732.9333333333334" y="1038" text-anchor="middle">12</text><line class="grid" x1="1937.1555555555558" x2="1937.1555555555558" y1="95" y2="1000"/><text class="tick" x="1937.1555555555558" y="1038" text-anchor="middle">13</text><line class="grid" x1="140" x2="1978" y1="132.55186721991703" y2="132.55186721991703"/><text class="tick" x="116" y="140.55186721991703" text-anchor="end">Mar 24</text><line class="grid" x1="140" x2="1978" y1="207.65560165975103" y2="207.65560165975103"/><text class="tick" x="116" y="215.65560165975103" text-anchor="end">Mar 26</text><line class="grid" x1="140" x2="1978" y1="282.7593360995851" y2="282.7593360995851"/><text class="tick" x="116" y="290.7593360995851" text-anchor="end">Mar 28</text><line class="grid" x1="140" x2="1978" y1="320.31120331950206" y2="320.31120331950206"/><text class="tick" x="116" y="328.31120331950206" text-anchor="end">Mar 29</text><line class="grid" x1="140" x2="1978" y1="357.8630705394191" y2="357.8630705394191"/><text class="tick" x="116" y="365.8630705394191" text-anchor="end">Mar 30</text><line class="grid" x1="140" x2="1978" y1="432.96680497925314" y2="432.96680497925314"/><text class="tick" x="116" y="440.96680497925314" text-anchor="end">Apr 01</text><line class="grid" x1="140" x2="1978" y1="470.5186721991701" y2="470.5186721991701"/><text class="tick" x="116" y="478.5186721991701" text-anchor="end">Apr 02</text><line class="grid" x1="140" x2="1978" y1="508.07053941908714" y2="508.07053941908714"/><text class="tick" x="116" y="516.0705394190871" text-anchor="end">Apr 03</text><line class="grid" x1="140" x2="1978" y1="545.6224066390041" y2="545.6224066390041"/><text class="tick" x="116" y="553.6224066390041" text-anchor="end">Apr 04</text><line class="grid" x1="140" x2="1978" y1="583.1742738589212" y2="583.1742738589212"/><text class="tick" x="116" y="591.1742738589212" text-anchor="end">Apr 05</text><line class="grid" x1="140" x2="1978" y1="658.2780082987551" y2="658.2780082987551"/><text class="tick" x="116" y="666.2780082987551" text-anchor="end">Apr 07</text><line class="grid" x1="140" x2="1978" y1="958.6929460580913" y2="958.6929460580913"/><text class="tick" x="116" y="966.6929460580913" text-anchor="end">Apr 15</text><line class="axisline" x1="140" x2="1978" y1="1000" y2="1000"/><line class="axisline" x1="140" x2="140" y1="95" y2="1000"/><path d="M 242.1 545.6 L 344.2 958.7 L 497.4 583.2 L 507.6 508.1 L 579.1 470.5 L 634.2 357.9 L 711.8 320.3 L 769.0 433.0 L 793.5 282.8 L 818.0 320.3 L 846.6 320.3 L 879.3 433.0 L 932.4 658.3 L 1022.2 320.3 L 1052.9 207.7 L 1091.7 282.8 L 1150.9 207.7 L 1185.6 207.7 L 1218.3 132.6 L 1344.9 207.7 L 1508.3 282.8 L 1769.7 470.5" fill="none" stroke="#a9cbee" stroke-width="5" stroke-linejoin="round" stroke-linecap="round" opacity=".95"/><circle cx="242.1" cy="545.6" r="11" fill="#df4f73" stroke="white" stroke-width="3"/><circle cx="344.2" cy="958.7" r="10" fill="#f6c8d6" stroke="white" stroke-width="3"/><circle cx="497.4" cy="583.2" r="10" fill="#f6c8d6" stroke="white" stroke-width="3"/><circle cx="507.6" cy="508.1" r="10" fill="#f6c8d6" stroke="white" stroke-width="3"/><circle cx="579.1" cy="470.5" r="10" fill="#f6c8d6" stroke="white" stroke-width="3"/><circle cx="634.2" cy="357.9" r="10" fill="#f6c8d6" stroke="white" stroke-width="3"/><circle cx="711.8" cy="320.3" r="11" fill="#df4f73" stroke="white" stroke-width="3"/><circle cx="769.0" cy="433.0" r="10" fill="#f6c8d6" stroke="white" stroke-width="3"/><circle cx="793.5" cy="282.8" r="11" fill="#df4f73" stroke="white" stroke-width="3"/><circle cx="818.0" cy="320.3" r="10" fill="#f6c8d6" stroke="white" stroke-width="3"/><circle cx="846.6" cy="320.3" r="10" fill="#f6c8d6" stroke="white" stroke-width="3"/><circle cx="879.3" cy="433.0" r="10" fill="#f6c8d6" stroke="white" stroke-width="3"/><circle cx="932.4" cy="658.3" r="10" fill="#f6c8d6" stroke="white" stroke-width="3"/><circle cx="1022.2" cy="320.3" r="10" fill="#f6c8d6" stroke="white" stroke-width="3"/><circle cx="1052.9" cy="207.7" r="11" fill="#df4f73" stroke="white" stroke-width="3"/><circle cx="1091.7" cy="282.8" r="10" fill="#f6c8d6" stroke="white" stroke-width="3"/><circle cx="1150.9" cy="207.7" r="10" fill="#f6c8d6" stroke="white" stroke-width="3"/><circle cx="1185.6" cy="207.7" r="10" fill="#f6c8d6" stroke="white" stroke-width="3"/><circle cx="1218.3" cy="132.6" r="11" fill="#df4f73" stroke="white" stroke-width="3"/><circle cx="1344.9" cy="207.7" r="10" fill="#f6c8d6" stroke="white" stroke-width="3"/><circle cx="1508.3" cy="282.8" r="10" fill="#f6c8d6" stroke="white" stroke-width="3"/><circle cx="1769.7" cy="470.5" r="11" fill="#df4f73" stroke="white" stroke-width="3"/><text class="label" x="154.1" y="521.6">Bukchuncheon</text><text class="label" x="677.8" y="296.3">Seoul</text><text class="label" x="759.5" y="258.8">Jeonju</text><text class="label" x="1016.9" y="182.7">Daegu</text><text class="label" x="1160.3" y="105.6">Changwon</text><text class="label" x="1739.7" y="445.5">Seogwipo</text><text class="axis" x="1024" y="1088" text-anchor="middle">Average Temperature Before Flowering (°C)</text><text class="axis" transform="translate(38 554) rotate(-90)" text-anchor="middle">Cherry Blossom Blooming Date</text></svg>
