<svg xmlns="http://www.w3.org/2000/svg" width="2048" height="1108" viewBox="0 0 2048 1108">
<rect width="100%" height="100%" fill="white"/>
<style>text{font-family:Arial, Helvetica, sans-serif}.title{font-size:48px;font-weight:800}.axis{font-size:32px;font-weight:800}.tick{font-size:24px}.label{font-size:24px;font-weight:800}.grid{stroke:#d8d8d8;stroke-width:1;opacity:.45}.axisline{stroke:#111;stroke-width:2}</style><text class="title" x="1024" y="54" text-anchor="middle">Warmer Regions Generally Bloom Earlier (2026)</text><line class="grid" x1="304.1215469613259" x2="304.1215469613259" y1="92" y2="1004"/><text class="tick" x="304.1215469613259" y="1038" text-anchor="middle">5</text><line class="grid" x1="506.77348066298333" x2="506.77348066298333" y1="92" y2="1004"/><text class="tick" x="506.77348066298333" y="1038" text-anchor="middle">6</text><line class="grid" x1="709.4254143646408" x2="709.4254143646408" y1="92" y2="1004"/><text class="tick" x="709.4254143646408" y="1038" text-anchor="middle">7</text><line class="grid" x1="912.0773480662982" x2="912.0773480662982" y1="92" y2="1004"/><text class="tick" x="912.0773480662982" y="1038" text-anchor="middle">8</text><line class="grid" x1="1114.7292817679559" x2="1114.7292817679559" y1="92" y2="1004"/><text class="tick" x="1114.7292817679559" y="1038" text-anchor="middle">9</text><line class="grid" x1="1317.3812154696132" x2="1317.3812154696132" y1="92" y2="1004"/><text class="tick" x="1317.3812154696132" y="1038" text-anchor="middle">10</text><line class="grid" x1="1520.0331491712707" x2="1520.0331491712707" y1="92" y2="1004"/><text class="tick" x="1520.0331491712707" y="1038" text-anchor="middle">11</text><line class="grid" x1="1722.685082872928" x2="1722.685082872928" y1="92" y2="1004"/><text class="tick" x="1722.685082872928" y="1038" text-anchor="middle">12</text><line class="grid" x1="1925.3370165745855" x2="1925.3370165745855" y1="92" y2="1004"/><text class="tick" x="1925.3370165745855" y="1038" text-anchor="middle">13</text><line class="grid" x1="142" x2="1976" y1="133.45454545454544" y2="133.45454545454544"/><text class="tick" x="120" y="141.45454545454544" text-anchor="end">Mar 24</text><line class="grid" x1="142" x2="1976" y1="208.82644628099172" y2="208.82644628099172"/><text class="tick" x="120" y="216.82644628099172" text-anchor="end">Mar 26</text><line class="grid" x1="142" x2="1976" y1="284.198347107438" y2="284.198347107438"/><text class="tick" x="120" y="292.198347107438" text-anchor="end">Mar 28</text><line class="grid" x1="142" x2="1976" y1="321.8842975206611" y2="321.8842975206611"/><text class="tick" x="120" y="329.8842975206611" text-anchor="end">Mar 29</text><line class="grid" x1="142" x2="1976" y1="359.5702479338843" y2="359.5702479338843"/><text class="tick" x="120" y="367.5702479338843" text-anchor="end">Mar 30</text><line class="grid" x1="142" x2="1976" y1="434.94214876033055" y2="434.94214876033055"/><text class="tick" x="120" y="442.94214876033055" text-anchor="end">Apr 01</text><line class="grid" x1="142" x2="1976" y1="472.62809917355366" y2="472.62809917355366"/><text class="tick" x="120" y="480.62809917355366" text-anchor="end">Apr 02</text><line class="grid" x1="142" x2="1976" y1="510.3140495867768" y2="510.3140495867768"/><text class="tick" x="120" y="518.3140495867767" text-anchor="end">Apr 03</text><line class="grid" x1="142" x2="1976" y1="548" y2="548"/><text class="tick" x="120" y="556" text-anchor="end">Apr 04</text><line class="grid" x1="142" x2="1976" y1="585.685950413223" y2="585.685950413223"/><text class="tick" x="120" y="593.685950413223" text-anchor="end">Apr 05</text><line class="grid" x1="142" x2="1976" y1="661.0578512396694" y2="661.0578512396694"/><text class="tick" x="120" y="669.0578512396694" text-anchor="end">Apr 07</text><line class="grid" x1="142" x2="1976" y1="962.5454545454545" y2="962.5454545454545"/><text class="tick" x="120" y="970.5454545454545" text-anchor="end">Apr 15</text><line class="axisline" x1="142" x2="1976" y1="1004" y2="1004"/><line class="axisline" x1="142" x2="142" y1="92" y2="1004"/><path d="M 770.2 284.2 L 851.3 359.6 L 891.8 359.6 L 932.3 208.8 L 932.3 434.9 L 952.6 321.9 L 952.6 321.9 L 952.6 472.6 L 1013.4 208.8 L 1013.4 284.2 L 1033.7 133.5 L 1033.7 321.9 L 1033.7 548.0 L 1033.7 962.5 L 1053.9 208.8 L 1053.9 434.9 L 1053.9 510.3 L 1094.5 585.7 L 1135.0 321.9 L 1175.5 661.1 L 1236.3 208.8 L 1297.1 284.2 L 1986.1 472.6" fill="none" stroke="#a9cbee" stroke-width="5" stroke-linejoin="round" stroke-linecap="round"/><circle cx="770.220994475138" cy="284.198347107438" r="11" fill="#df4f73" stroke="white" stroke-width="3"/><circle cx="851.281767955801" cy="359.5702479338843" r="10" fill="#f6c8d6" stroke="white" stroke-width="3"/><circle cx="891.8121546961327" cy="359.5702479338843" r="10" fill="#f6c8d6" stroke="white" stroke-width="3"/><circle cx="932.3425414364639" cy="208.82644628099172" r="11" fill="#df4f73" stroke="white" stroke-width="3"/><circle cx="932.3425414364639" cy="434.94214876033055" r="10" fill="#f6c8d6" stroke="white" stroke-width="3"/><circle cx="952.6077348066297" cy="321.8842975206611" r="10" fill="#f6c8d6" stroke="white" stroke-width="3"/><circle cx="952.6077348066297" cy="321.8842975206611" r="11" fill="#df4f73" stroke="white" stroke-width="3"/><circle cx="952.6077348066297" cy="472.62809917355366" r="10" fill="#f6c8d6" stroke="white" stroke-width="3"/><circle cx="1013.403314917127" cy="208.82644628099172" r="10" fill="#f6c8d6" stroke="white" stroke-width="3"/><circle cx="1013.403314917127" cy="284.198347107438" r="10" fill="#f6c8d6" stroke="white" stroke-width="3"/><circle cx="1033.6685082872928" cy="133.45454545454544" r="11" fill="#df4f73" stroke="white" stroke-width="3"/><circle cx="1033.6685082872928" cy="321.8842975206611" r="10" fill="#f6c8d6" stroke="white" stroke-width="3"/><circle cx="1033.6685082872928" cy="548" r="11" fill="#df4f73" stroke="white" stroke-width="3"/><circle cx="1033.6685082872928" cy="962.5454545454545" r="10" fill="#f6c8d6" stroke="white" stroke-width="3"/><circle cx="1053.9337016574582" cy="208.82644628099172" r="10" fill="#f6c8d6" stroke="white" stroke-width="3"/><circle cx="1053.9337016574582" cy="434.94214876033055" r="10" fill="#f6c8d6" stroke="white" stroke-width="3"/><circle cx="1053.9337016574582" cy="510.3140495867768" r="10" fill="#f6c8d6" stroke="white" stroke-width="3"/><circle cx="1094.46408839779" cy="585.685950413223" r="10" fill="#f6c8d6" stroke="white" stroke-width="3"/><circle cx="1134.9944751381213" cy="321.8842975206611" r="10" fill="#f6c8d6" stroke="white" stroke-width="3"/><circle cx="1175.524861878453" cy="661.0578512396694" r="10" fill="#f6c8d6" stroke="white" stroke-width="3"/><circle cx="1236.32044198895" cy="208.82644628099172" r="10" fill="#f6c8d6" stroke="white" stroke-width="3"/><circle cx="1297.1160220994475" cy="284.198347107438" r="10" fill="#f6c8d6" stroke="white" stroke-width="3"/><circle cx="1986.132596685083" cy="472.62809917355366" r="11" fill="#df4f73" stroke="white" stroke-width="3"/><text class="label" x="736.220994475138" y="257.198347107438">Jeonju</text><text class="label" x="896.3425414364639" y="180.82644628099172">Daegu</text><text class="label" x="918.6077348066297" y="297.8842975206611">Seoul</text><text class="label" x="975.6685082872928" y="104.45454545454544">Changwon</text><text class="label" x="955.6685082872928" y="526">Bukchuncheon</text><text class="label" x="1956.132596685083" y="447.62809917355366">Seogwipo</text><text class="axis" x="1024" y="1090" text-anchor="middle">Average Temperature Before Flowering (°C)</text><text class="axis" transform="translate(36 554) rotate(-90)" text-anchor="middle">Cherry Blossom Blooming Date</text></svg>